<svg xmlns="http://www.w3.org/2000/svg" xmlns:xlink="http://www.w3.org/1999/xlink" width="500" zoomAndPan="magnify" viewBox="0 0 375 374.999991" height="500" preserveAspectRatio="xMidYMid meet" version="1.0"><defs><g/><clipPath id="24d687c064"><path d="M 54.917969 45.070312 L 320.082031 45.070312 L 320.082031 310.234375 L 54.917969 310.234375 Z M 54.917969 45.070312 " clip-rule="nonzero"/></clipPath><clipPath id="4978632ad6"><path d="M 187.492188 0.00390625 L 374.992188 187.503906 L 187.492188 375.003906 L -0.0078125 187.503906 Z M 187.492188 0.00390625 " clip-rule="nonzero"/></clipPath><clipPath id="280ee2968b"><path d="M 187.492188 0.00390625 L 374.992188 187.503906 L 187.492188 375.003906 L -0.0078125 187.503906 Z M 187.492188 0.00390625 " clip-rule="nonzero"/></clipPath><clipPath id="f565bd5cfb"><path d="M 54.917969 74.945312 L 320.082031 74.945312 L 320.082031 310.234375 L 54.917969 310.234375 Z M 54.917969 74.945312 " clip-rule="nonzero"/></clipPath><clipPath id="78fd803f75"><path d="M 187.5 74.945312 L 320.082031 310.234375 L 54.917969 310.234375 Z M 187.5 74.945312 " clip-rule="nonzero"/></clipPath></defs><rect x="-37.5" width="450" fill="#ffffff" y="-37.499999" height="449.999989" fill-opacity="1"/><rect x="-37.5" width="450" fill="#ffffff" y="-37.499999" height="449.999989" fill-opacity="1"/><g clip-path="url(#24d687c064)"><path fill="#00bf63" d="M 54.917969 45.070312 L 320.082031 45.070312 L 320.082031 310.234375 L 54.917969 310.234375 Z M 54.917969 45.070312 " fill-opacity="1" fill-rule="nonzero"/></g><g clip-path="url(#4978632ad6)"><g clip-path="url(#280ee2968b)"><path fill="#ffffff" d="M 187.492188 0.00390625 L 374.992188 187.503906 L 187.492188 375.003906 L -0.0078125 187.503906 Z M 187.492188 0.00390625 " fill-opacity="1" fill-rule="nonzero"/></g></g><g clip-path="url(#f565bd5cfb)"><g clip-path="url(#78fd803f75)"><path fill="#00bf63" d="M 54.917969 74.945312 L 320.082031 74.945312 L 320.082031 310.234375 L 54.917969 310.234375 Z M 54.917969 74.945312 " fill-opacity="1" fill-rule="nonzero"/></g></g><g fill="#00bf63" fill-opacity="1"><g transform="translate(42.608245, 359.249976)"><g><path d="M 2.765625 0 L 2.765625 -39.5625 L 10.90625 -39.5625 L 10.90625 -21.109375 L 11 -21.109375 C 13.113281 -23.222656 15.363281 -24.28125 17.75 -24.28125 C 18.914062 -24.28125 20.070312 -24.128906 21.21875 -23.828125 C 22.375 -23.523438 23.476562 -23.050781 24.53125 -22.40625 C 25.59375 -21.757812 26.453125 -20.84375 27.109375 -19.65625 C 27.773438 -18.476562 28.109375 -17.109375 28.109375 -15.546875 L 28.109375 0 L 19.96875 0 L 19.96875 -13.34375 C 19.96875 -14.570312 19.578125 -15.644531 18.796875 -16.5625 C 18.015625 -17.476562 16.992188 -17.9375 15.734375 -17.9375 C 14.503906 -17.9375 13.390625 -17.460938 12.390625 -16.515625 C 11.398438 -15.566406 10.90625 -14.507812 10.90625 -13.34375 L 10.90625 0 Z M 2.765625 0 "/></g></g></g><g fill="#00bf63" fill-opacity="1"><g transform="translate(72.091683, 359.249976)"><g><path d="M 3.53125 -36.75 C 4.488281 -37.707031 5.625 -38.1875 6.9375 -38.1875 C 8.257812 -38.1875 9.394531 -37.707031 10.34375 -36.75 C 11.300781 -35.800781 11.78125 -34.664062 11.78125 -33.34375 C 11.78125 -32.03125 11.300781 -30.894531 10.34375 -29.9375 C 9.394531 -28.988281 8.257812 -28.515625 6.9375 -28.515625 C 5.625 -28.515625 4.488281 -28.988281 3.53125 -29.9375 C 2.582031 -30.894531 2.109375 -32.03125 2.109375 -33.34375 C 2.109375 -34.664062 2.582031 -35.800781 3.53125 -36.75 Z M 2.765625 -23.59375 L 2.765625 0 L 10.90625 0 L 10.90625 -23.59375 Z M 2.765625 -23.59375 "/></g></g></g><g fill="#00bf63" fill-opacity="1"><g transform="translate(85.06251, 359.249976)"><g><path d="M 13.015625 -24.28125 C 14.367188 -24.28125 15.703125 -24.128906 17.015625 -23.828125 C 18.335938 -23.523438 19.320312 -23.21875 19.96875 -22.90625 L 20.9375 -22.453125 L 18.265625 -17.109375 C 16.421875 -18.085938 14.671875 -18.578125 13.015625 -18.578125 C 12.097656 -18.578125 11.445312 -18.476562 11.0625 -18.28125 C 10.675781 -18.082031 10.484375 -17.707031 10.484375 -17.15625 C 10.484375 -17.03125 10.5 -16.90625 10.53125 -16.78125 C 10.5625 -16.664062 10.625 -16.550781 10.71875 -16.4375 C 10.8125 -16.332031 10.894531 -16.238281 10.96875 -16.15625 C 11.050781 -16.082031 11.179688 -16 11.359375 -15.90625 C 11.546875 -15.820312 11.691406 -15.753906 11.796875 -15.703125 C 11.898438 -15.660156 12.078125 -15.59375 12.328125 -15.5 C 12.578125 -15.40625 12.757812 -15.332031 12.875 -15.28125 C 13 -15.238281 13.207031 -15.171875 13.5 -15.078125 C 13.789062 -14.992188 14.015625 -14.9375 14.171875 -14.90625 C 15.117188 -14.625 15.941406 -14.316406 16.640625 -13.984375 C 17.347656 -13.648438 18.09375 -13.191406 18.875 -12.609375 C 19.664062 -12.023438 20.273438 -11.285156 20.703125 -10.390625 C 21.128906 -9.503906 21.34375 -8.492188 21.34375 -7.359375 C 21.34375 -1.992188 17.617188 0.6875 10.171875 0.6875 C 8.484375 0.6875 6.878906 0.425781 5.359375 -0.09375 C 3.835938 -0.613281 2.738281 -1.132812 2.0625 -1.65625 L 1.0625 -2.484375 L 4.375 -8.046875 C 4.613281 -7.835938 4.929688 -7.585938 5.328125 -7.296875 C 5.734375 -7.003906 6.457031 -6.601562 7.5 -6.09375 C 8.539062 -5.59375 9.445312 -5.34375 10.21875 -5.34375 C 11.894531 -5.34375 12.734375 -5.90625 12.734375 -7.03125 C 12.734375 -7.550781 12.519531 -7.957031 12.09375 -8.25 C 11.664062 -8.539062 10.9375 -8.867188 9.90625 -9.234375 C 8.882812 -9.609375 8.082031 -9.953125 7.5 -10.265625 C 6.03125 -11.023438 4.863281 -11.890625 4 -12.859375 C 3.144531 -13.828125 2.71875 -15.109375 2.71875 -16.703125 C 2.71875 -19.085938 3.644531 -20.945312 5.5 -22.28125 C 7.351562 -23.613281 9.859375 -24.28125 13.015625 -24.28125 Z M 13.015625 -24.28125 "/></g></g></g><g fill="#00bf63" fill-opacity="1"><g transform="translate(106.772609, 359.249976)"><g><path d="M 13.015625 -24.28125 C 14.367188 -24.28125 15.703125 -24.128906 17.015625 -23.828125 C 18.335938 -23.523438 19.320312 -23.21875 19.96875 -22.90625 L 20.9375 -22.453125 L 18.265625 -17.109375 C 16.421875 -18.085938 14.671875 -18.578125 13.015625 -18.578125 C 12.097656 -18.578125 11.445312 -18.476562 11.0625 -18.28125 C 10.675781 -18.082031 10.484375 -17.707031 10.484375 -17.15625 C 10.484375 -17.03125 10.5 -16.90625 10.53125 -16.78125 C 10.5625 -16.664062 10.625 -16.550781 10.71875 -16.4375 C 10.8125 -16.332031 10.894531 -16.238281 10.96875 -16.15625 C 11.050781 -16.082031 11.179688 -16 11.359375 -15.90625 C 11.546875 -15.820312 11.691406 -15.753906 11.796875 -15.703125 C 11.898438 -15.660156 12.078125 -15.59375 12.328125 -15.5 C 12.578125 -15.40625 12.757812 -15.332031 12.875 -15.28125 C 13 -15.238281 13.207031 -15.171875 13.5 -15.078125 C 13.789062 -14.992188 14.015625 -14.9375 14.171875 -14.90625 C 15.117188 -14.625 15.941406 -14.316406 16.640625 -13.984375 C 17.347656 -13.648438 18.09375 -13.191406 18.875 -12.609375 C 19.664062 -12.023438 20.273438 -11.285156 20.703125 -10.390625 C 21.128906 -9.503906 21.34375 -8.492188 21.34375 -7.359375 C 21.34375 -1.992188 17.617188 0.6875 10.171875 0.6875 C 8.484375 0.6875 6.878906 0.425781 5.359375 -0.09375 C 3.835938 -0.613281 2.738281 -1.132812 2.0625 -1.65625 L 1.0625 -2.484375 L 4.375 -8.046875 C 4.613281 -7.835938 4.929688 -7.585938 5.328125 -7.296875 C 5.734375 -7.003906 6.457031 -6.601562 7.5 -6.09375 C 8.539062 -5.59375 9.445312 -5.34375 10.21875 -5.34375 C 11.894531 -5.34375 12.734375 -5.90625 12.734375 -7.03125 C 12.734375 -7.550781 12.519531 -7.957031 12.09375 -8.25 C 11.664062 -8.539062 10.9375 -8.867188 9.90625 -9.234375 C 8.882812 -9.609375 8.082031 -9.953125 7.5 -10.265625 C 6.03125 -11.023438 4.863281 -11.890625 4 -12.859375 C 3.144531 -13.828125 2.71875 -15.109375 2.71875 -16.703125 C 2.71875 -19.085938 3.644531 -20.945312 5.5 -22.28125 C 7.351562 -23.613281 9.859375 -24.28125 13.015625 -24.28125 Z M 13.015625 -24.28125 "/></g></g></g><g fill="#00bf63" fill-opacity="1"><g transform="translate(128.482702, 359.249976)"><g><path d="M 26.640625 -10.671875 L 9.515625 -10.671875 C 9.515625 -9.015625 10.050781 -7.785156 11.125 -6.984375 C 12.195312 -6.191406 13.363281 -5.796875 14.625 -5.796875 C 15.945312 -5.796875 16.988281 -5.972656 17.75 -6.328125 C 18.519531 -6.679688 19.394531 -7.378906 20.375 -8.421875 L 26.265625 -5.46875 C 23.816406 -1.363281 19.738281 0.6875 14.03125 0.6875 C 10.46875 0.6875 7.414062 -0.53125 4.875 -2.96875 C 2.332031 -5.40625 1.0625 -8.335938 1.0625 -11.765625 C 1.0625 -15.203125 2.332031 -18.144531 4.875 -20.59375 C 7.414062 -23.050781 10.46875 -24.28125 14.03125 -24.28125 C 17.769531 -24.28125 20.8125 -23.195312 23.15625 -21.03125 C 25.507812 -18.875 26.6875 -15.789062 26.6875 -11.78125 C 26.6875 -11.226562 26.671875 -10.859375 26.640625 -10.671875 Z M 9.75 -15.1875 L 18.71875 -15.1875 C 18.539062 -16.40625 18.054688 -17.34375 17.265625 -18 C 16.484375 -18.664062 15.484375 -19 14.265625 -19 C 12.910156 -19 11.832031 -18.644531 11.03125 -17.9375 C 10.238281 -17.226562 9.8125 -16.3125 9.75 -15.1875 Z M 9.75 -15.1875 "/></g></g></g><g fill="#00bf63" fill-opacity="1"><g transform="translate(155.298358, 359.249976)"><g><path d="M 13.015625 -24.28125 C 14.367188 -24.28125 15.703125 -24.128906 17.015625 -23.828125 C 18.335938 -23.523438 19.320312 -23.21875 19.96875 -22.90625 L 20.9375 -22.453125 L 18.265625 -17.109375 C 16.421875 -18.085938 14.671875 -18.578125 13.015625 -18.578125 C 12.097656 -18.578125 11.445312 -18.476562 11.0625 -18.28125 C 10.675781 -18.082031 10.484375 -17.707031 10.484375 -17.15625 C 10.484375 -17.03125 10.5 -16.90625 10.53125 -16.78125 C 10.5625 -16.664062 10.625 -16.550781 10.71875 -16.4375 C 10.8125 -16.332031 10.894531 -16.238281 10.96875 -16.15625 C 11.050781 -16.082031 11.179688 -16 11.359375 -15.90625 C 11.546875 -15.820312 11.691406 -15.753906 11.796875 -15.703125 C 11.898438 -15.660156 12.078125 -15.59375 12.328125 -15.5 C 12.578125 -15.40625 12.757812 -15.332031 12.875 -15.28125 C 13 -15.238281 13.207031 -15.171875 13.5 -15.078125 C 13.789062 -14.992188 14.015625 -14.9375 14.171875 -14.90625 C 15.117188 -14.625 15.941406 -14.316406 16.640625 -13.984375 C 17.347656 -13.648438 18.09375 -13.191406 18.875 -12.609375 C 19.664062 -12.023438 20.273438 -11.285156 20.703125 -10.390625 C 21.128906 -9.503906 21.34375 -8.492188 21.34375 -7.359375 C 21.34375 -1.992188 17.617188 0.6875 10.171875 0.6875 C 8.484375 0.6875 6.878906 0.425781 5.359375 -0.09375 C 3.835938 -0.613281 2.738281 -1.132812 2.0625 -1.65625 L 1.0625 -2.484375 L 4.375 -8.046875 C 4.613281 -7.835938 4.929688 -7.585938 5.328125 -7.296875 C 5.734375 -7.003906 6.457031 -6.601562 7.5 -6.09375 C 8.539062 -5.59375 9.445312 -5.34375 10.21875 -5.34375 C 11.894531 -5.34375 12.734375 -5.90625 12.734375 -7.03125 C 12.734375 -7.550781 12.519531 -7.957031 12.09375 -8.25 C 11.664062 -8.539062 10.9375 -8.867188 9.90625 -9.234375 C 8.882812 -9.609375 8.082031 -9.953125 7.5 -10.265625 C 6.03125 -11.023438 4.863281 -11.890625 4 -12.859375 C 3.144531 -13.828125 2.71875 -15.109375 2.71875 -16.703125 C 2.71875 -19.085938 3.644531 -20.945312 5.5 -22.28125 C 7.351562 -23.613281 9.859375 -24.28125 13.015625 -24.28125 Z M 13.015625 -24.28125 "/></g></g></g><g fill="#00bf63" fill-opacity="1"><g transform="translate(177.008452, 359.249976)"><g><path d="M 4.984375 -2.796875 C 2.367188 -5.128906 1.0625 -8.117188 1.0625 -11.765625 C 1.0625 -15.421875 2.425781 -18.421875 5.15625 -20.765625 C 7.882812 -23.109375 11.253906 -24.28125 15.265625 -24.28125 C 19.222656 -24.28125 22.554688 -23.097656 25.265625 -20.734375 C 27.984375 -18.378906 29.34375 -15.390625 29.34375 -11.765625 C 29.34375 -8.148438 28.015625 -5.171875 25.359375 -2.828125 C 22.710938 -0.484375 19.347656 0.6875 15.265625 0.6875 C 11.035156 0.6875 7.609375 -0.472656 4.984375 -2.796875 Z M 11.28125 -15.78125 C 10.226562 -14.738281 9.703125 -13.40625 9.703125 -11.78125 C 9.703125 -10.15625 10.207031 -8.828125 11.21875 -7.796875 C 12.226562 -6.765625 13.5625 -6.25 15.21875 -6.25 C 16.820312 -6.25 18.132812 -6.769531 19.15625 -7.8125 C 20.1875 -8.863281 20.703125 -10.1875 20.703125 -11.78125 C 20.703125 -13.40625 20.171875 -14.738281 19.109375 -15.78125 C 18.054688 -16.820312 16.757812 -17.34375 15.21875 -17.34375 C 13.65625 -17.34375 12.34375 -16.820312 11.28125 -15.78125 Z M 11.28125 -15.78125 "/></g></g></g><g fill="#00bf63" fill-opacity="1"><g transform="translate(206.491886, 359.249976)"><g><path d="M 2.765625 0 L 2.765625 -23.59375 L 10.90625 -23.59375 L 10.90625 -20.1875 L 11 -20.1875 C 11.0625 -20.3125 11.160156 -20.46875 11.296875 -20.65625 C 11.429688 -20.84375 11.726562 -21.164062 12.1875 -21.625 C 12.644531 -22.082031 13.132812 -22.492188 13.65625 -22.859375 C 14.175781 -23.222656 14.847656 -23.550781 15.671875 -23.84375 C 16.503906 -24.132812 17.351562 -24.28125 18.21875 -24.28125 C 19.101562 -24.28125 19.972656 -24.15625 20.828125 -23.90625 C 21.691406 -23.664062 22.320312 -23.425781 22.71875 -23.1875 L 23.375 -22.8125 L 19.96875 -15.921875 C 18.957031 -16.773438 17.546875 -17.203125 15.734375 -17.203125 C 14.753906 -17.203125 13.910156 -16.988281 13.203125 -16.5625 C 12.492188 -16.132812 11.992188 -15.613281 11.703125 -15 C 11.410156 -14.382812 11.203125 -13.859375 11.078125 -13.421875 C 10.960938 -12.992188 10.90625 -12.660156 10.90625 -12.421875 L 10.90625 0 Z M 2.765625 0 "/></g></g></g><g fill="#00bf63" fill-opacity="1"><g transform="translate(228.477954, 359.249976)"><g><path d="M 1.703125 5.796875 L 8.375 2.53125 C 9.601562 4.550781 11.734375 5.5625 14.765625 5.5625 C 16.171875 5.5625 17.476562 5.109375 18.6875 4.203125 C 19.90625 3.304688 20.515625 1.921875 20.515625 0.046875 L 20.515625 -1.703125 C 19.078125 -0.109375 16.5 0.6875 12.78125 0.6875 C 9.382812 0.6875 6.582031 -0.515625 4.375 -2.921875 C 2.164062 -5.328125 1.0625 -8.273438 1.0625 -11.765625 C 1.0625 -15.265625 2.164062 -18.222656 4.375 -20.640625 C 6.582031 -23.066406 9.382812 -24.28125 12.78125 -24.28125 C 15.820312 -24.28125 18.351562 -23.347656 20.375 -21.484375 L 20.515625 -21.484375 L 20.515625 -23.59375 L 28.65625 -23.59375 L 28.65625 0.640625 C 28.65625 4.472656 27.378906 7.429688 24.828125 9.515625 C 22.285156 11.609375 18.929688 12.65625 14.765625 12.65625 C 8.015625 12.65625 3.660156 10.367188 1.703125 5.796875 Z M 11.28125 -15.78125 C 10.226562 -14.738281 9.703125 -13.40625 9.703125 -11.78125 C 9.703125 -10.15625 10.207031 -8.828125 11.21875 -7.796875 C 12.226562 -6.765625 13.5625 -6.25 15.21875 -6.25 C 16.820312 -6.25 18.132812 -6.769531 19.15625 -7.8125 C 20.1875 -8.863281 20.703125 -10.1875 20.703125 -11.78125 C 20.703125 -13.40625 20.171875 -14.738281 19.109375 -15.78125 C 18.054688 -16.820312 16.757812 -17.34375 15.21875 -17.34375 C 13.65625 -17.34375 12.34375 -16.820312 11.28125 -15.78125 Z M 11.28125 -15.78125 "/></g></g></g><g fill="#00bf63" fill-opacity="1"><g transform="translate(258.973321, 359.249976)"><g><path d="M 10.4375 -23.59375 L 10.4375 -12.375 C 10.4375 -10.039062 10.789062 -8.382812 11.5 -7.40625 C 12.207031 -6.425781 13.40625 -5.9375 15.09375 -5.9375 C 16.78125 -5.9375 17.972656 -6.425781 18.671875 -7.40625 C 19.378906 -8.382812 19.734375 -10.039062 19.734375 -12.375 L 19.734375 -23.59375 L 27.875 -23.59375 L 27.875 -10.390625 C 27.875 -6.472656 26.851562 -3.644531 24.8125 -1.90625 C 22.78125 -0.175781 19.539062 0.6875 15.09375 0.6875 C 10.644531 0.6875 7.398438 -0.175781 5.359375 -1.90625 C 3.316406 -3.644531 2.296875 -6.472656 2.296875 -10.390625 L 2.296875 -23.59375 Z M 10.4375 -23.59375 "/></g></g></g><g fill="#00bf63" fill-opacity="1"><g transform="translate(288.226775, 359.249976)"><g><path d="M 2.765625 0 L 2.765625 -39.5625 L 10.90625 -39.5625 L 10.90625 0 Z M 2.765625 0 "/></g></g></g><g fill="#00bf63" fill-opacity="1"><g transform="translate(300.967619, 359.249976)"><g><path d="M 4.375 -2.921875 C 2.164062 -5.328125 1.0625 -8.273438 1.0625 -11.765625 C 1.0625 -15.265625 2.164062 -18.222656 4.375 -20.640625 C 6.582031 -23.066406 9.382812 -24.28125 12.78125 -24.28125 C 15.914062 -24.28125 18.492188 -23.300781 20.515625 -21.34375 L 20.515625 -23.59375 L 28.65625 -23.59375 L 28.65625 0 L 20.609375 0 L 20.609375 -2.671875 L 20.515625 -2.671875 C 18.492188 -0.429688 15.914062 0.6875 12.78125 0.6875 C 9.382812 0.6875 6.582031 -0.515625 4.375 -2.921875 Z M 11.28125 -15.78125 C 10.226562 -14.738281 9.703125 -13.40625 9.703125 -11.78125 C 9.703125 -10.15625 10.207031 -8.828125 11.21875 -7.796875 C 12.226562 -6.765625 13.5625 -6.25 15.21875 -6.25 C 16.820312 -6.25 18.132812 -6.769531 19.15625 -7.8125 C 20.1875 -8.863281 20.703125 -10.1875 20.703125 -11.78125 C 20.703125 -13.40625 20.171875 -14.738281 19.109375 -15.78125 C 18.054688 -16.820312 16.757812 -17.34375 15.21875 -17.34375 C 13.65625 -17.34375 12.34375 -16.820312 11.28125 -15.78125 Z M 11.28125 -15.78125 "/></g></g></g></svg>