<svg xmlns="http://www.w3.org/2000/svg" xmlns:xlink="http://www.w3.org/1999/xlink" width="500" zoomAndPan="magnify" viewBox="0 0 375 374.999991" height="500" preserveAspectRatio="xMidYMid meet" version="1.0"><defs><g/></defs><rect x="-37.5" width="450" fill="#ffffff" y="-37.499999" height="449.999989" fill-opacity="1"/><rect x="-37.5" width="450" fill="#ffffff" y="-37.499999" height="449.999989" fill-opacity="1"/><g fill="#00bf63" fill-opacity="1"><g transform="translate(15.937284, 198.125069)"><g><path d="M 2.359375 0 L 2.359375 -33.90625 L 9.34375 -33.90625 L 9.34375 -18.09375 L 9.421875 -18.09375 C 11.234375 -19.90625 13.164062 -20.8125 15.21875 -20.8125 C 16.21875 -20.8125 17.207031 -20.679688 18.1875 -20.421875 C 19.175781 -20.160156 20.125 -19.753906 21.03125 -19.203125 C 21.9375 -18.648438 22.671875 -17.863281 23.234375 -16.84375 C 23.804688 -15.832031 24.09375 -14.660156 24.09375 -13.328125 L 24.09375 0 L 17.109375 0 L 17.109375 -11.4375 C 17.109375 -12.488281 16.769531 -13.40625 16.09375 -14.1875 C 15.425781 -14.976562 14.554688 -15.375 13.484375 -15.375 C 12.429688 -15.375 11.476562 -14.96875 10.625 -14.15625 C 9.769531 -13.34375 9.34375 -12.4375 9.34375 -11.4375 L 9.34375 0 Z M 2.359375 0 "/></g></g></g><g fill="#00bf63" fill-opacity="1"><g transform="translate(41.199502, 198.125069)"><g><path d="M 3.03125 -31.5 C 3.84375 -32.3125 4.8125 -32.71875 5.9375 -32.71875 C 7.070312 -32.71875 8.046875 -32.3125 8.859375 -31.5 C 9.679688 -30.6875 10.09375 -29.710938 10.09375 -28.578125 C 10.09375 -27.453125 9.679688 -26.476562 8.859375 -25.65625 C 8.046875 -24.84375 7.070312 -24.4375 5.9375 -24.4375 C 4.8125 -24.4375 3.84375 -24.84375 3.03125 -25.65625 C 2.21875 -26.476562 1.8125 -27.453125 1.8125 -28.578125 C 1.8125 -29.710938 2.21875 -30.6875 3.03125 -31.5 Z M 2.359375 -20.21875 L 2.359375 0 L 9.34375 0 L 9.34375 -20.21875 Z M 2.359375 -20.21875 "/></g></g></g><g fill="#00bf63" fill-opacity="1"><g transform="translate(52.313195, 198.125069)"><g><path d="M 11.15625 -20.8125 C 12.3125 -20.8125 13.453125 -20.679688 14.578125 -20.421875 C 15.710938 -20.160156 16.554688 -19.894531 17.109375 -19.625 L 17.9375 -19.234375 L 15.65625 -14.671875 C 14.070312 -15.503906 12.570312 -15.921875 11.15625 -15.921875 C 10.363281 -15.921875 9.800781 -15.832031 9.46875 -15.65625 C 9.144531 -15.488281 8.984375 -15.171875 8.984375 -14.703125 C 8.984375 -14.597656 8.992188 -14.492188 9.015625 -14.390625 C 9.046875 -14.285156 9.097656 -14.1875 9.171875 -14.09375 C 9.253906 -14 9.328125 -13.921875 9.390625 -13.859375 C 9.460938 -13.796875 9.578125 -13.722656 9.734375 -13.640625 C 9.890625 -13.554688 10.015625 -13.492188 10.109375 -13.453125 C 10.203125 -13.421875 10.351562 -13.363281 10.5625 -13.28125 C 10.769531 -13.207031 10.925781 -13.148438 11.03125 -13.109375 C 11.144531 -13.066406 11.320312 -13.003906 11.5625 -12.921875 C 11.8125 -12.847656 12.003906 -12.796875 12.140625 -12.765625 C 12.953125 -12.535156 13.660156 -12.273438 14.265625 -11.984375 C 14.867188 -11.691406 15.503906 -11.296875 16.171875 -10.796875 C 16.847656 -10.296875 17.367188 -9.664062 17.734375 -8.90625 C 18.109375 -8.144531 18.296875 -7.28125 18.296875 -6.3125 C 18.296875 -1.707031 15.101562 0.59375 8.71875 0.59375 C 7.269531 0.59375 5.894531 0.367188 4.59375 -0.078125 C 3.289062 -0.523438 2.351562 -0.972656 1.78125 -1.421875 L 0.90625 -2.125 L 3.75 -6.90625 C 3.957031 -6.71875 4.226562 -6.5 4.5625 -6.25 C 4.90625 -6 5.523438 -5.65625 6.421875 -5.21875 C 7.316406 -4.789062 8.09375 -4.578125 8.75 -4.578125 C 10.195312 -4.578125 10.921875 -5.0625 10.921875 -6.03125 C 10.921875 -6.476562 10.734375 -6.828125 10.359375 -7.078125 C 9.992188 -7.328125 9.367188 -7.609375 8.484375 -7.921875 C 7.609375 -8.234375 6.921875 -8.523438 6.421875 -8.796875 C 5.160156 -9.453125 4.160156 -10.191406 3.421875 -11.015625 C 2.691406 -11.847656 2.328125 -12.945312 2.328125 -14.3125 C 2.328125 -16.363281 3.117188 -17.957031 4.703125 -19.09375 C 6.296875 -20.238281 8.445312 -20.8125 11.15625 -20.8125 Z M 11.15625 -20.8125 "/></g></g></g><g fill="#00bf63" fill-opacity="1"><g transform="translate(70.914966, 198.125069)"><g><path d="M 11.15625 -20.8125 C 12.3125 -20.8125 13.453125 -20.679688 14.578125 -20.421875 C 15.710938 -20.160156 16.554688 -19.894531 17.109375 -19.625 L 17.9375 -19.234375 L 15.65625 -14.671875 C 14.070312 -15.503906 12.570312 -15.921875 11.15625 -15.921875 C 10.363281 -15.921875 9.800781 -15.832031 9.46875 -15.65625 C 9.144531 -15.488281 8.984375 -15.171875 8.984375 -14.703125 C 8.984375 -14.597656 8.992188 -14.492188 9.015625 -14.390625 C 9.046875 -14.285156 9.097656 -14.1875 9.171875 -14.09375 C 9.253906 -14 9.328125 -13.921875 9.390625 -13.859375 C 9.460938 -13.796875 9.578125 -13.722656 9.734375 -13.640625 C 9.890625 -13.554688 10.015625 -13.492188 10.109375 -13.453125 C 10.203125 -13.421875 10.351562 -13.363281 10.5625 -13.28125 C 10.769531 -13.207031 10.925781 -13.148438 11.03125 -13.109375 C 11.144531 -13.066406 11.320312 -13.003906 11.5625 -12.921875 C 11.8125 -12.847656 12.003906 -12.796875 12.140625 -12.765625 C 12.953125 -12.535156 13.660156 -12.273438 14.265625 -11.984375 C 14.867188 -11.691406 15.503906 -11.296875 16.171875 -10.796875 C 16.847656 -10.296875 17.367188 -9.664062 17.734375 -8.90625 C 18.109375 -8.144531 18.296875 -7.28125 18.296875 -6.3125 C 18.296875 -1.707031 15.101562 0.59375 8.71875 0.59375 C 7.269531 0.59375 5.894531 0.367188 4.59375 -0.078125 C 3.289062 -0.523438 2.351562 -0.972656 1.78125 -1.421875 L 0.90625 -2.125 L 3.75 -6.90625 C 3.957031 -6.71875 4.226562 -6.5 4.5625 -6.25 C 4.90625 -6 5.523438 -5.65625 6.421875 -5.21875 C 7.316406 -4.789062 8.09375 -4.578125 8.75 -4.578125 C 10.195312 -4.578125 10.921875 -5.0625 10.921875 -6.03125 C 10.921875 -6.476562 10.734375 -6.828125 10.359375 -7.078125 C 9.992188 -7.328125 9.367188 -7.609375 8.484375 -7.921875 C 7.609375 -8.234375 6.921875 -8.523438 6.421875 -8.796875 C 5.160156 -9.453125 4.160156 -10.191406 3.421875 -11.015625 C 2.691406 -11.847656 2.328125 -12.945312 2.328125 -14.3125 C 2.328125 -16.363281 3.117188 -17.957031 4.703125 -19.09375 C 6.296875 -20.238281 8.445312 -20.8125 11.15625 -20.8125 Z M 11.15625 -20.8125 "/></g></g></g><g fill="#00bf63" fill-opacity="1"><g transform="translate(89.516739, 198.125069)"><g><path d="M 22.828125 -9.140625 L 8.15625 -9.140625 C 8.15625 -7.722656 8.613281 -6.671875 9.53125 -5.984375 C 10.457031 -5.304688 11.457031 -4.96875 12.53125 -4.96875 C 13.664062 -4.96875 14.5625 -5.117188 15.21875 -5.421875 C 15.875 -5.722656 16.625 -6.320312 17.46875 -7.21875 L 22.515625 -4.6875 C 20.410156 -1.164062 16.914062 0.59375 12.03125 0.59375 C 8.976562 0.59375 6.359375 -0.445312 4.171875 -2.53125 C 1.992188 -4.625 0.90625 -7.140625 0.90625 -10.078125 C 0.90625 -13.023438 1.992188 -15.550781 4.171875 -17.65625 C 6.359375 -19.757812 8.976562 -20.8125 12.03125 -20.8125 C 15.226562 -20.8125 17.832031 -19.882812 19.84375 -18.03125 C 21.851562 -16.175781 22.859375 -13.53125 22.859375 -10.09375 C 22.859375 -9.613281 22.847656 -9.296875 22.828125 -9.140625 Z M 8.359375 -13.015625 L 16.046875 -13.015625 C 15.890625 -14.066406 15.472656 -14.875 14.796875 -15.4375 C 14.128906 -16 13.269531 -16.28125 12.21875 -16.28125 C 11.0625 -16.28125 10.140625 -15.976562 9.453125 -15.375 C 8.773438 -14.769531 8.410156 -13.984375 8.359375 -13.015625 Z M 8.359375 -13.015625 "/></g></g></g><g fill="#00bf63" fill-opacity="1"><g transform="translate(112.493123, 198.125069)"><g><path d="M 11.15625 -20.8125 C 12.3125 -20.8125 13.453125 -20.679688 14.578125 -20.421875 C 15.710938 -20.160156 16.554688 -19.894531 17.109375 -19.625 L 17.9375 -19.234375 L 15.65625 -14.671875 C 14.070312 -15.503906 12.570312 -15.921875 11.15625 -15.921875 C 10.363281 -15.921875 9.800781 -15.832031 9.46875 -15.65625 C 9.144531 -15.488281 8.984375 -15.171875 8.984375 -14.703125 C 8.984375 -14.597656 8.992188 -14.492188 9.015625 -14.390625 C 9.046875 -14.285156 9.097656 -14.1875 9.171875 -14.09375 C 9.253906 -14 9.328125 -13.921875 9.390625 -13.859375 C 9.460938 -13.796875 9.578125 -13.722656 9.734375 -13.640625 C 9.890625 -13.554688 10.015625 -13.492188 10.109375 -13.453125 C 10.203125 -13.421875 10.351562 -13.363281 10.5625 -13.28125 C 10.769531 -13.207031 10.925781 -13.148438 11.03125 -13.109375 C 11.144531 -13.066406 11.320312 -13.003906 11.5625 -12.921875 C 11.8125 -12.847656 12.003906 -12.796875 12.140625 -12.765625 C 12.953125 -12.535156 13.660156 -12.273438 14.265625 -11.984375 C 14.867188 -11.691406 15.503906 -11.296875 16.171875 -10.796875 C 16.847656 -10.296875 17.367188 -9.664062 17.734375 -8.90625 C 18.109375 -8.144531 18.296875 -7.28125 18.296875 -6.3125 C 18.296875 -1.707031 15.101562 0.59375 8.71875 0.59375 C 7.269531 0.59375 5.894531 0.367188 4.59375 -0.078125 C 3.289062 -0.523438 2.351562 -0.972656 1.78125 -1.421875 L 0.90625 -2.125 L 3.75 -6.90625 C 3.957031 -6.71875 4.226562 -6.5 4.5625 -6.25 C 4.90625 -6 5.523438 -5.65625 6.421875 -5.21875 C 7.316406 -4.789062 8.09375 -4.578125 8.75 -4.578125 C 10.195312 -4.578125 10.921875 -5.0625 10.921875 -6.03125 C 10.921875 -6.476562 10.734375 -6.828125 10.359375 -7.078125 C 9.992188 -7.328125 9.367188 -7.609375 8.484375 -7.921875 C 7.609375 -8.234375 6.921875 -8.523438 6.421875 -8.796875 C 5.160156 -9.453125 4.160156 -10.191406 3.421875 -11.015625 C 2.691406 -11.847656 2.328125 -12.945312 2.328125 -14.3125 C 2.328125 -16.363281 3.117188 -17.957031 4.703125 -19.09375 C 6.296875 -20.238281 8.445312 -20.8125 11.15625 -20.8125 Z M 11.15625 -20.8125 "/></g></g></g><g fill="#00bf63" fill-opacity="1"><g transform="translate(131.094896, 198.125069)"><g><path d="M 4.265625 -2.40625 C 2.023438 -4.40625 0.90625 -6.96875 0.90625 -10.09375 C 0.90625 -13.21875 2.070312 -15.785156 4.40625 -17.796875 C 6.75 -19.804688 9.644531 -20.8125 13.09375 -20.8125 C 16.476562 -20.8125 19.332031 -19.800781 21.65625 -17.78125 C 23.988281 -15.757812 25.15625 -13.195312 25.15625 -10.09375 C 25.15625 -6.988281 24.015625 -4.429688 21.734375 -2.421875 C 19.460938 -0.410156 16.582031 0.59375 13.09375 0.59375 C 9.457031 0.59375 6.515625 -0.40625 4.265625 -2.40625 Z M 9.671875 -13.515625 C 8.765625 -12.628906 8.3125 -11.488281 8.3125 -10.09375 C 8.3125 -8.695312 8.742188 -7.554688 9.609375 -6.671875 C 10.484375 -5.796875 11.628906 -5.359375 13.046875 -5.359375 C 14.410156 -5.359375 15.53125 -5.804688 16.40625 -6.703125 C 17.289062 -7.597656 17.734375 -8.726562 17.734375 -10.09375 C 17.734375 -11.488281 17.28125 -12.628906 16.375 -13.515625 C 15.46875 -14.410156 14.359375 -14.859375 13.046875 -14.859375 C 11.703125 -14.859375 10.578125 -14.410156 9.671875 -13.515625 Z M 9.671875 -13.515625 "/></g></g></g><g fill="#00bf63" fill-opacity="1"><g transform="translate(156.357109, 198.125069)"><g><path d="M 2.359375 0 L 2.359375 -20.21875 L 9.34375 -20.21875 L 9.34375 -17.3125 L 9.421875 -17.3125 C 9.472656 -17.414062 9.554688 -17.546875 9.671875 -17.703125 C 9.796875 -17.859375 10.050781 -18.132812 10.4375 -18.53125 C 10.832031 -18.925781 11.253906 -19.28125 11.703125 -19.59375 C 12.148438 -19.90625 12.726562 -20.1875 13.4375 -20.4375 C 14.144531 -20.6875 14.867188 -20.8125 15.609375 -20.8125 C 16.367188 -20.8125 17.117188 -20.707031 17.859375 -20.5 C 18.597656 -20.289062 19.132812 -20.082031 19.46875 -19.875 L 20.03125 -19.546875 L 17.109375 -13.640625 C 16.242188 -14.378906 15.035156 -14.75 13.484375 -14.75 C 12.640625 -14.75 11.914062 -14.5625 11.3125 -14.1875 C 10.707031 -13.820312 10.28125 -13.375 10.03125 -12.84375 C 9.78125 -12.320312 9.601562 -11.875 9.5 -11.5 C 9.394531 -11.132812 9.34375 -10.847656 9.34375 -10.640625 L 9.34375 0 Z M 2.359375 0 "/></g></g></g><g fill="#00bf63" fill-opacity="1"><g transform="translate(175.195347, 198.125069)"><g><path d="M 1.453125 4.96875 L 7.171875 2.171875 C 8.222656 3.898438 10.050781 4.765625 12.65625 4.765625 C 13.863281 4.765625 14.984375 4.375 16.015625 3.59375 C 17.054688 2.820312 17.578125 1.640625 17.578125 0.046875 L 17.578125 -1.453125 C 16.347656 -0.0859375 14.140625 0.59375 10.953125 0.59375 C 8.035156 0.59375 5.628906 -0.4375 3.734375 -2.5 C 1.847656 -4.5625 0.90625 -7.09375 0.90625 -10.09375 C 0.90625 -13.09375 1.847656 -15.628906 3.734375 -17.703125 C 5.628906 -19.773438 8.035156 -20.8125 10.953125 -20.8125 C 13.554688 -20.8125 15.726562 -20.007812 17.46875 -18.40625 L 17.578125 -18.40625 L 17.578125 -20.21875 L 24.5625 -20.21875 L 24.5625 0.546875 C 24.5625 3.835938 23.46875 6.375 21.28125 8.15625 C 19.101562 9.945312 16.226562 10.84375 12.65625 10.84375 C 6.875 10.84375 3.140625 8.882812 1.453125 4.96875 Z M 9.671875 -13.515625 C 8.765625 -12.628906 8.3125 -11.488281 8.3125 -10.09375 C 8.3125 -8.695312 8.742188 -7.554688 9.609375 -6.671875 C 10.484375 -5.796875 11.628906 -5.359375 13.046875 -5.359375 C 14.410156 -5.359375 15.53125 -5.804688 16.40625 -6.703125 C 17.289062 -7.597656 17.734375 -8.726562 17.734375 -10.09375 C 17.734375 -11.488281 17.28125 -12.628906 16.375 -13.515625 C 15.46875 -14.410156 14.359375 -14.859375 13.046875 -14.859375 C 11.703125 -14.859375 10.578125 -14.410156 9.671875 -13.515625 Z M 9.671875 -13.515625 "/></g></g></g><g fill="#00bf63" fill-opacity="1"><g transform="translate(201.324602, 198.125069)"><g><path d="M 8.953125 -20.21875 L 8.953125 -10.609375 C 8.953125 -8.609375 9.253906 -7.1875 9.859375 -6.34375 C 10.460938 -5.5 11.484375 -5.078125 12.921875 -5.078125 C 14.367188 -5.078125 15.394531 -5.5 16 -6.34375 C 16.601562 -7.1875 16.90625 -8.609375 16.90625 -10.609375 L 16.90625 -20.21875 L 23.890625 -20.21875 L 23.890625 -8.90625 C 23.890625 -5.539062 23.015625 -3.113281 21.265625 -1.625 C 19.515625 -0.144531 16.734375 0.59375 12.921875 0.59375 C 9.117188 0.59375 6.34375 -0.144531 4.59375 -1.625 C 2.84375 -3.113281 1.96875 -5.539062 1.96875 -8.90625 L 1.96875 -20.21875 Z M 8.953125 -20.21875 "/></g></g></g><g fill="#00bf63" fill-opacity="1"><g transform="translate(226.389761, 198.125069)"><g><path d="M 2.359375 0 L 2.359375 -33.90625 L 9.34375 -33.90625 L 9.34375 0 Z M 2.359375 0 "/></g></g></g><g fill="#00bf63" fill-opacity="1"><g transform="translate(237.306396, 198.125069)"><g><path d="M 3.734375 -2.5 C 1.847656 -4.5625 0.90625 -7.09375 0.90625 -10.09375 C 0.90625 -13.09375 1.847656 -15.628906 3.734375 -17.703125 C 5.628906 -19.773438 8.035156 -20.8125 10.953125 -20.8125 C 13.640625 -20.8125 15.847656 -19.972656 17.578125 -18.296875 L 17.578125 -20.21875 L 24.5625 -20.21875 L 24.5625 0 L 17.65625 0 L 17.65625 -2.28125 L 17.578125 -2.28125 C 15.847656 -0.363281 13.640625 0.59375 10.953125 0.59375 C 8.035156 0.59375 5.628906 -0.4375 3.734375 -2.5 Z M 9.671875 -13.515625 C 8.765625 -12.628906 8.3125 -11.488281 8.3125 -10.09375 C 8.3125 -8.695312 8.742188 -7.554688 9.609375 -6.671875 C 10.484375 -5.796875 11.628906 -5.359375 13.046875 -5.359375 C 14.410156 -5.359375 15.53125 -5.804688 16.40625 -6.703125 C 17.289062 -7.597656 17.734375 -8.726562 17.734375 -10.09375 C 17.734375 -11.488281 17.28125 -12.628906 16.375 -13.515625 C 15.46875 -14.410156 14.359375 -14.859375 13.046875 -14.859375 C 11.703125 -14.859375 10.578125 -14.410156 9.671875 -13.515625 Z M 9.671875 -13.515625 "/></g></g></g><g fill="#00bf63" fill-opacity="1"><g transform="translate(263.435651, 198.125069)"><g><path d="M 6.859375 -8.4375 C 8.117188 -8.4375 9.1875 -7.992188 10.0625 -7.109375 C 10.945312 -6.234375 11.390625 -5.164062 11.390625 -3.90625 C 11.390625 -2.664062 10.945312 -1.601562 10.0625 -0.71875 C 9.1875 0.15625 8.117188 0.59375 6.859375 0.59375 C 5.617188 0.59375 4.554688 0.15625 3.671875 -0.71875 C 2.796875 -1.601562 2.359375 -2.664062 2.359375 -3.90625 C 2.359375 -5.164062 2.796875 -6.234375 3.671875 -7.109375 C 4.554688 -7.992188 5.617188 -8.4375 6.859375 -8.4375 Z M 6.859375 -8.4375 "/></g></g></g><g fill="#00bf63" fill-opacity="1"><g transform="translate(276.401643, 198.125069)"><g><path d="M 13.125 -15.09375 C 11.8125 -15.09375 10.679688 -14.609375 9.734375 -13.640625 C 8.785156 -12.671875 8.3125 -11.5 8.3125 -10.125 C 8.3125 -8.738281 8.785156 -7.554688 9.734375 -6.578125 C 10.679688 -5.609375 11.8125 -5.125 13.125 -5.125 C 13.757812 -5.125 14.359375 -5.203125 14.921875 -5.359375 C 15.484375 -5.515625 15.894531 -5.671875 16.15625 -5.828125 L 16.515625 -6.078125 L 18.890625 -1.21875 C 18.703125 -1.09375 18.441406 -0.929688 18.109375 -0.734375 C 17.785156 -0.535156 17.035156 -0.265625 15.859375 0.078125 C 14.691406 0.421875 13.441406 0.59375 12.109375 0.59375 C 9.128906 0.59375 6.515625 -0.445312 4.265625 -2.53125 C 2.023438 -4.625 0.90625 -7.128906 0.90625 -10.046875 C 0.90625 -12.992188 2.023438 -15.523438 4.265625 -17.640625 C 6.515625 -19.753906 9.128906 -20.8125 12.109375 -20.8125 C 13.441406 -20.8125 14.671875 -20.65625 15.796875 -20.34375 C 16.929688 -20.03125 17.738281 -19.710938 18.21875 -19.390625 L 18.890625 -18.921875 L 16.515625 -14.15625 C 15.648438 -14.78125 14.519531 -15.09375 13.125 -15.09375 Z M 13.125 -15.09375 "/></g></g></g><g fill="#00bf63" fill-opacity="1"><g transform="translate(294.963999, 198.125069)"><g><path d="M 4.265625 -2.40625 C 2.023438 -4.40625 0.90625 -6.96875 0.90625 -10.09375 C 0.90625 -13.21875 2.070312 -15.785156 4.40625 -17.796875 C 6.75 -19.804688 9.644531 -20.8125 13.09375 -20.8125 C 16.476562 -20.8125 19.332031 -19.800781 21.65625 -17.78125 C 23.988281 -15.757812 25.15625 -13.195312 25.15625 -10.09375 C 25.15625 -6.988281 24.015625 -4.429688 21.734375 -2.421875 C 19.460938 -0.410156 16.582031 0.59375 13.09375 0.59375 C 9.457031 0.59375 6.515625 -0.40625 4.265625 -2.40625 Z M 9.671875 -13.515625 C 8.765625 -12.628906 8.3125 -11.488281 8.3125 -10.09375 C 8.3125 -8.695312 8.742188 -7.554688 9.609375 -6.671875 C 10.484375 -5.796875 11.628906 -5.359375 13.046875 -5.359375 C 14.410156 -5.359375 15.53125 -5.804688 16.40625 -6.703125 C 17.289062 -7.597656 17.734375 -8.726562 17.734375 -10.09375 C 17.734375 -11.488281 17.28125 -12.628906 16.375 -13.515625 C 15.46875 -14.410156 14.359375 -14.859375 13.046875 -14.859375 C 11.703125 -14.859375 10.578125 -14.410156 9.671875 -13.515625 Z M 9.671875 -13.515625 "/></g></g></g><g fill="#00bf63" fill-opacity="1"><g transform="translate(320.226218, 198.125069)"><g><path d="M 2.359375 0 L 2.359375 -20.21875 L 9.34375 -20.21875 L 9.34375 -18.09375 L 9.421875 -18.09375 C 11.234375 -19.90625 13.164062 -20.8125 15.21875 -20.8125 C 16.6875 -20.8125 18.0625 -20.507812 19.34375 -19.90625 C 20.632812 -19.300781 21.609375 -18.367188 22.265625 -17.109375 C 24.316406 -19.578125 26.550781 -20.8125 28.96875 -20.8125 C 31.125 -20.8125 32.976562 -20.207031 34.53125 -19 C 36.082031 -17.789062 36.859375 -15.898438 36.859375 -13.328125 L 36.859375 0 L 29.875 0 L 29.875 -11.4375 C 29.875 -12.507812 29.578125 -13.40625 28.984375 -14.125 C 28.398438 -14.851562 27.515625 -15.21875 26.328125 -15.21875 C 25.304688 -15.21875 24.523438 -14.90625 23.984375 -14.28125 C 23.453125 -13.664062 23.15625 -12.925781 23.09375 -12.0625 L 23.09375 0 L 16.125 0 L 16.125 -11.4375 C 16.125 -12.507812 15.828125 -13.40625 15.234375 -14.125 C 14.640625 -14.851562 13.753906 -15.21875 12.578125 -15.21875 C 11.492188 -15.21875 10.679688 -14.878906 10.140625 -14.203125 C 9.609375 -13.535156 9.34375 -12.742188 9.34375 -11.828125 L 9.34375 0 Z M 2.359375 0 "/></g></g></g></svg>