<svg xmlns="http://www.w3.org/2000/svg" xmlns:xlink="http://www.w3.org/1999/xlink" width="500" zoomAndPan="magnify" viewBox="0 0 375 374.999991" height="500" preserveAspectRatio="xMidYMid meet" version="1.0"><defs><g/></defs><rect x="-37.5" width="450" fill="#ffffff" y="-37.499999" height="449.999989" fill-opacity="1"/><rect x="-37.5" width="450" fill="#ffffff" y="-37.499999" height="449.999989" fill-opacity="1"/><g fill="#00bf63" fill-opacity="1"><g transform="translate(11.284075, 197.677905)"><g><path d="M 2.421875 0 L 2.421875 -34.8125 L 9.59375 -34.8125 L 9.59375 -18.578125 L 9.671875 -18.578125 C 11.535156 -20.441406 13.519531 -21.375 15.625 -21.375 C 16.65625 -21.375 17.675781 -21.238281 18.6875 -20.96875 C 19.695312 -20.695312 20.664062 -20.273438 21.59375 -19.703125 C 22.53125 -19.140625 23.285156 -18.335938 23.859375 -17.296875 C 24.441406 -16.265625 24.734375 -15.0625 24.734375 -13.6875 L 24.734375 0 L 17.5625 0 L 17.5625 -11.734375 C 17.5625 -12.816406 17.21875 -13.757812 16.53125 -14.5625 C 15.84375 -15.375 14.945312 -15.78125 13.84375 -15.78125 C 12.757812 -15.78125 11.78125 -15.363281 10.90625 -14.53125 C 10.03125 -13.695312 9.59375 -12.765625 9.59375 -11.734375 L 9.59375 0 Z M 2.421875 0 "/></g></g></g><g fill="#00bf63" fill-opacity="1"><g transform="translate(37.231921, 197.677905)"><g><path d="M 3.109375 -32.34375 C 3.953125 -33.1875 4.953125 -33.609375 6.109375 -33.609375 C 7.273438 -33.609375 8.273438 -33.1875 9.109375 -32.34375 C 9.941406 -31.507812 10.359375 -30.507812 10.359375 -29.34375 C 10.359375 -28.1875 9.941406 -27.1875 9.109375 -26.34375 C 8.273438 -25.507812 7.273438 -25.09375 6.109375 -25.09375 C 4.953125 -25.09375 3.953125 -25.507812 3.109375 -26.34375 C 2.273438 -27.1875 1.859375 -28.1875 1.859375 -29.34375 C 1.859375 -30.507812 2.273438 -31.507812 3.109375 -32.34375 Z M 2.421875 -20.765625 L 2.421875 0 L 9.59375 0 L 9.59375 -20.765625 Z M 2.421875 -20.765625 "/></g></g></g><g fill="#00bf63" fill-opacity="1"><g transform="translate(48.647229, 197.677905)"><g><path d="M 11.453125 -21.375 C 12.640625 -21.375 13.8125 -21.238281 14.96875 -20.96875 C 16.132812 -20.695312 17 -20.425781 17.5625 -20.15625 L 18.421875 -19.75 L 16.078125 -15.0625 C 14.453125 -15.925781 12.910156 -16.359375 11.453125 -16.359375 C 10.648438 -16.359375 10.078125 -16.269531 9.734375 -16.09375 C 9.398438 -15.914062 9.234375 -15.582031 9.234375 -15.09375 C 9.234375 -14.988281 9.242188 -14.878906 9.265625 -14.765625 C 9.296875 -14.660156 9.347656 -14.5625 9.421875 -14.46875 C 9.503906 -14.375 9.578125 -14.289062 9.640625 -14.21875 C 9.710938 -14.15625 9.832031 -14.082031 10 -14 C 10.164062 -13.925781 10.296875 -13.867188 10.390625 -13.828125 C 10.484375 -13.785156 10.632812 -13.722656 10.84375 -13.640625 C 11.0625 -13.554688 11.222656 -13.492188 11.328125 -13.453125 C 11.441406 -13.421875 11.625 -13.363281 11.875 -13.28125 C 12.132812 -13.195312 12.332031 -13.140625 12.46875 -13.109375 C 13.300781 -12.867188 14.03125 -12.597656 14.65625 -12.296875 C 15.28125 -12.003906 15.9375 -11.601562 16.625 -11.09375 C 17.3125 -10.582031 17.84375 -9.929688 18.21875 -9.140625 C 18.59375 -8.359375 18.78125 -7.472656 18.78125 -6.484375 C 18.78125 -1.753906 15.503906 0.609375 8.953125 0.609375 C 7.460938 0.609375 6.050781 0.378906 4.71875 -0.078125 C 3.382812 -0.535156 2.421875 -0.992188 1.828125 -1.453125 L 0.9375 -2.1875 L 3.84375 -7.078125 C 4.0625 -6.890625 4.34375 -6.664062 4.6875 -6.40625 C 5.039062 -6.15625 5.675781 -5.804688 6.59375 -5.359375 C 7.507812 -4.921875 8.304688 -4.703125 8.984375 -4.703125 C 10.472656 -4.703125 11.21875 -5.195312 11.21875 -6.1875 C 11.21875 -6.644531 11.023438 -7.003906 10.640625 -7.265625 C 10.265625 -7.523438 9.625 -7.816406 8.71875 -8.140625 C 7.820312 -8.460938 7.113281 -8.757812 6.59375 -9.03125 C 5.300781 -9.707031 4.273438 -10.46875 3.515625 -11.3125 C 2.765625 -12.164062 2.390625 -13.296875 2.390625 -14.703125 C 2.390625 -16.804688 3.203125 -18.441406 4.828125 -19.609375 C 6.460938 -20.785156 8.671875 -21.375 11.453125 -21.375 Z M 11.453125 -21.375 "/></g></g></g><g fill="#00bf63" fill-opacity="1"><g transform="translate(67.75386, 197.677905)"><g><path d="M 11.453125 -21.375 C 12.640625 -21.375 13.8125 -21.238281 14.96875 -20.96875 C 16.132812 -20.695312 17 -20.425781 17.5625 -20.15625 L 18.421875 -19.75 L 16.078125 -15.0625 C 14.453125 -15.925781 12.910156 -16.359375 11.453125 -16.359375 C 10.648438 -16.359375 10.078125 -16.269531 9.734375 -16.09375 C 9.398438 -15.914062 9.234375 -15.582031 9.234375 -15.09375 C 9.234375 -14.988281 9.242188 -14.878906 9.265625 -14.765625 C 9.296875 -14.660156 9.347656 -14.5625 9.421875 -14.46875 C 9.503906 -14.375 9.578125 -14.289062 9.640625 -14.21875 C 9.710938 -14.15625 9.832031 -14.082031 10 -14 C 10.164062 -13.925781 10.296875 -13.867188 10.390625 -13.828125 C 10.484375 -13.785156 10.632812 -13.722656 10.84375 -13.640625 C 11.0625 -13.554688 11.222656 -13.492188 11.328125 -13.453125 C 11.441406 -13.421875 11.625 -13.363281 11.875 -13.28125 C 12.132812 -13.195312 12.332031 -13.140625 12.46875 -13.109375 C 13.300781 -12.867188 14.03125 -12.597656 14.65625 -12.296875 C 15.28125 -12.003906 15.9375 -11.601562 16.625 -11.09375 C 17.3125 -10.582031 17.84375 -9.929688 18.21875 -9.140625 C 18.59375 -8.359375 18.78125 -7.472656 18.78125 -6.484375 C 18.78125 -1.753906 15.503906 0.609375 8.953125 0.609375 C 7.460938 0.609375 6.050781 0.378906 4.71875 -0.078125 C 3.382812 -0.535156 2.421875 -0.992188 1.828125 -1.453125 L 0.9375 -2.1875 L 3.84375 -7.078125 C 4.0625 -6.890625 4.34375 -6.664062 4.6875 -6.40625 C 5.039062 -6.15625 5.675781 -5.804688 6.59375 -5.359375 C 7.507812 -4.921875 8.304688 -4.703125 8.984375 -4.703125 C 10.472656 -4.703125 11.21875 -5.195312 11.21875 -6.1875 C 11.21875 -6.644531 11.023438 -7.003906 10.640625 -7.265625 C 10.265625 -7.523438 9.625 -7.816406 8.71875 -8.140625 C 7.820312 -8.460938 7.113281 -8.757812 6.59375 -9.03125 C 5.300781 -9.707031 4.273438 -10.46875 3.515625 -11.3125 C 2.765625 -12.164062 2.390625 -13.296875 2.390625 -14.703125 C 2.390625 -16.804688 3.203125 -18.441406 4.828125 -19.609375 C 6.460938 -20.785156 8.671875 -21.375 11.453125 -21.375 Z M 11.453125 -21.375 "/></g></g></g><g fill="#00bf63" fill-opacity="1"><g transform="translate(86.860487, 197.677905)"><g><path d="M 23.4375 -9.390625 L 8.375 -9.390625 C 8.375 -7.929688 8.847656 -6.847656 9.796875 -6.140625 C 10.742188 -5.441406 11.769531 -5.09375 12.875 -5.09375 C 14.03125 -5.09375 14.945312 -5.25 15.625 -5.5625 C 16.300781 -5.875 17.070312 -6.488281 17.9375 -7.40625 L 23.109375 -4.8125 C 20.953125 -1.195312 17.363281 0.609375 12.34375 0.609375 C 9.21875 0.609375 6.535156 -0.460938 4.296875 -2.609375 C 2.054688 -4.753906 0.9375 -7.335938 0.9375 -10.359375 C 0.9375 -13.378906 2.054688 -15.96875 4.296875 -18.125 C 6.535156 -20.289062 9.21875 -21.375 12.34375 -21.375 C 15.632812 -21.375 18.3125 -20.421875 20.375 -18.515625 C 22.445312 -16.617188 23.484375 -13.898438 23.484375 -10.359375 C 23.484375 -9.878906 23.46875 -9.554688 23.4375 -9.390625 Z M 8.578125 -13.359375 L 16.484375 -13.359375 C 16.316406 -14.441406 15.890625 -15.269531 15.203125 -15.84375 C 14.515625 -16.425781 13.628906 -16.71875 12.546875 -16.71875 C 11.359375 -16.71875 10.410156 -16.40625 9.703125 -15.78125 C 9.003906 -15.164062 8.628906 -14.359375 8.578125 -13.359375 Z M 8.578125 -13.359375 "/></g></g></g><g fill="#000000" fill-opacity="1"><g transform="translate(110.46144, 197.677905)"><g><path d="M 11.453125 -21.375 C 12.640625 -21.375 13.8125 -21.238281 14.96875 -20.96875 C 16.132812 -20.695312 17 -20.425781 17.5625 -20.15625 L 18.421875 -19.75 L 16.078125 -15.0625 C 14.453125 -15.925781 12.910156 -16.359375 11.453125 -16.359375 C 10.648438 -16.359375 10.078125 -16.269531 9.734375 -16.09375 C 9.398438 -15.914062 9.234375 -15.582031 9.234375 -15.09375 C 9.234375 -14.988281 9.242188 -14.878906 9.265625 -14.765625 C 9.296875 -14.660156 9.347656 -14.5625 9.421875 -14.46875 C 9.503906 -14.375 9.578125 -14.289062 9.640625 -14.21875 C 9.710938 -14.15625 9.832031 -14.082031 10 -14 C 10.164062 -13.925781 10.296875 -13.867188 10.390625 -13.828125 C 10.484375 -13.785156 10.632812 -13.722656 10.84375 -13.640625 C 11.0625 -13.554688 11.222656 -13.492188 11.328125 -13.453125 C 11.441406 -13.421875 11.625 -13.363281 11.875 -13.28125 C 12.132812 -13.195312 12.332031 -13.140625 12.46875 -13.109375 C 13.300781 -12.867188 14.03125 -12.597656 14.65625 -12.296875 C 15.28125 -12.003906 15.9375 -11.601562 16.625 -11.09375 C 17.3125 -10.582031 17.84375 -9.929688 18.21875 -9.140625 C 18.59375 -8.359375 18.78125 -7.472656 18.78125 -6.484375 C 18.78125 -1.753906 15.503906 0.609375 8.953125 0.609375 C 7.460938 0.609375 6.050781 0.378906 4.71875 -0.078125 C 3.382812 -0.535156 2.421875 -0.992188 1.828125 -1.453125 L 0.9375 -2.1875 L 3.84375 -7.078125 C 4.0625 -6.890625 4.34375 -6.664062 4.6875 -6.40625 C 5.039062 -6.15625 5.675781 -5.804688 6.59375 -5.359375 C 7.507812 -4.921875 8.304688 -4.703125 8.984375 -4.703125 C 10.472656 -4.703125 11.21875 -5.195312 11.21875 -6.1875 C 11.21875 -6.644531 11.023438 -7.003906 10.640625 -7.265625 C 10.265625 -7.523438 9.625 -7.816406 8.71875 -8.140625 C 7.820312 -8.460938 7.113281 -8.757812 6.59375 -9.03125 C 5.300781 -9.707031 4.273438 -10.46875 3.515625 -11.3125 C 2.765625 -12.164062 2.390625 -13.296875 2.390625 -14.703125 C 2.390625 -16.804688 3.203125 -18.441406 4.828125 -19.609375 C 6.460938 -20.785156 8.671875 -21.375 11.453125 -21.375 Z M 11.453125 -21.375 "/></g></g></g><g fill="#000000" fill-opacity="1"><g transform="translate(129.568069, 197.677905)"><g><path d="M 4.390625 -2.46875 C 2.085938 -4.519531 0.9375 -7.148438 0.9375 -10.359375 C 0.9375 -13.578125 2.132812 -16.21875 4.53125 -18.28125 C 6.9375 -20.34375 9.90625 -21.375 13.4375 -21.375 C 16.914062 -21.375 19.847656 -20.332031 22.234375 -18.25 C 24.628906 -16.175781 25.828125 -13.546875 25.828125 -10.359375 C 25.828125 -7.179688 24.660156 -4.554688 22.328125 -2.484375 C 19.992188 -0.421875 17.03125 0.609375 13.4375 0.609375 C 9.71875 0.609375 6.703125 -0.414062 4.390625 -2.46875 Z M 9.9375 -13.890625 C 9.007812 -12.972656 8.546875 -11.796875 8.546875 -10.359375 C 8.546875 -8.929688 8.988281 -7.765625 9.875 -6.859375 C 10.769531 -5.953125 11.945312 -5.5 13.40625 -5.5 C 14.800781 -5.5 15.953125 -5.957031 16.859375 -6.875 C 17.765625 -7.800781 18.21875 -8.960938 18.21875 -10.359375 C 18.21875 -11.796875 17.75 -12.972656 16.8125 -13.890625 C 15.882812 -14.804688 14.75 -15.265625 13.40625 -15.265625 C 12.019531 -15.265625 10.863281 -14.804688 9.9375 -13.890625 Z M 9.9375 -13.890625 "/></g></g></g><g fill="#000000" fill-opacity="1"><g transform="translate(155.515914, 197.677905)"><g><path d="M 2.421875 0 L 2.421875 -20.765625 L 9.59375 -20.765625 L 9.59375 -17.765625 L 9.671875 -17.765625 C 9.722656 -17.878906 9.8125 -18.015625 9.9375 -18.171875 C 10.0625 -18.335938 10.320312 -18.625 10.71875 -19.03125 C 11.125 -19.4375 11.554688 -19.800781 12.015625 -20.125 C 12.484375 -20.445312 13.078125 -20.734375 13.796875 -20.984375 C 14.523438 -21.242188 15.269531 -21.375 16.03125 -21.375 C 16.8125 -21.375 17.578125 -21.265625 18.328125 -21.046875 C 19.085938 -20.835938 19.644531 -20.625 20 -20.40625 L 20.5625 -20.078125 L 17.5625 -14 C 16.675781 -14.757812 15.4375 -15.140625 13.84375 -15.140625 C 12.976562 -15.140625 12.234375 -14.945312 11.609375 -14.5625 C 10.992188 -14.1875 10.554688 -13.726562 10.296875 -13.1875 C 10.046875 -12.65625 9.863281 -12.195312 9.75 -11.8125 C 9.644531 -11.4375 9.59375 -11.144531 9.59375 -10.9375 L 9.59375 0 Z M 2.421875 0 "/></g></g></g><g fill="#000000" fill-opacity="1"><g transform="translate(174.865425, 197.677905)"><g><path d="M 1.5 5.09375 L 7.375 2.234375 C 8.445312 4.015625 10.320312 4.90625 13 4.90625 C 14.238281 4.90625 15.390625 4.503906 16.453125 3.703125 C 17.523438 2.910156 18.0625 1.691406 18.0625 0.046875 L 18.0625 -1.5 C 16.789062 -0.09375 14.519531 0.609375 11.25 0.609375 C 8.257812 0.609375 5.789062 -0.445312 3.84375 -2.5625 C 1.90625 -4.6875 0.9375 -7.285156 0.9375 -10.359375 C 0.9375 -13.441406 1.90625 -16.046875 3.84375 -18.171875 C 5.789062 -20.304688 8.257812 -21.375 11.25 -21.375 C 13.925781 -21.375 16.15625 -20.550781 17.9375 -18.90625 L 18.0625 -18.90625 L 18.0625 -20.765625 L 25.21875 -20.765625 L 25.21875 0.5625 C 25.21875 3.9375 24.097656 6.539062 21.859375 8.375 C 19.617188 10.21875 16.664062 11.140625 13 11.140625 C 7.0625 11.140625 3.226562 9.125 1.5 5.09375 Z M 9.9375 -13.890625 C 9.007812 -12.972656 8.546875 -11.796875 8.546875 -10.359375 C 8.546875 -8.929688 8.988281 -7.765625 9.875 -6.859375 C 10.769531 -5.953125 11.945312 -5.5 13.40625 -5.5 C 14.800781 -5.5 15.953125 -5.957031 16.859375 -6.875 C 17.765625 -7.800781 18.21875 -8.960938 18.21875 -10.359375 C 18.21875 -11.796875 17.75 -12.972656 16.8125 -13.890625 C 15.882812 -14.804688 14.75 -15.265625 13.40625 -15.265625 C 12.019531 -15.265625 10.863281 -14.804688 9.9375 -13.890625 Z M 9.9375 -13.890625 "/></g></g></g><g fill="#000000" fill-opacity="1"><g transform="translate(201.70385, 197.677905)"><g><path d="M 9.1875 -20.765625 L 9.1875 -10.890625 C 9.1875 -8.835938 9.492188 -7.378906 10.109375 -6.515625 C 10.734375 -5.648438 11.785156 -5.21875 13.265625 -5.21875 C 14.753906 -5.21875 15.8125 -5.648438 16.4375 -6.515625 C 17.0625 -7.378906 17.375 -8.835938 17.375 -10.890625 L 17.375 -20.765625 L 24.53125 -20.765625 L 24.53125 -9.15625 C 24.53125 -5.695312 23.632812 -3.203125 21.84375 -1.671875 C 20.050781 -0.148438 17.195312 0.609375 13.28125 0.609375 C 9.363281 0.609375 6.507812 -0.148438 4.71875 -1.671875 C 2.925781 -3.203125 2.03125 -5.695312 2.03125 -9.15625 L 2.03125 -20.765625 Z M 9.1875 -20.765625 "/></g></g></g><g fill="#000000" fill-opacity="1"><g transform="translate(227.44929, 197.677905)"><g><path d="M 2.421875 0 L 2.421875 -34.8125 L 9.59375 -34.8125 L 9.59375 0 Z M 2.421875 0 "/></g></g></g><g fill="#000000" fill-opacity="1"><g transform="translate(238.662202, 197.677905)"><g><path d="M 3.84375 -2.5625 C 1.90625 -4.6875 0.9375 -7.285156 0.9375 -10.359375 C 0.9375 -13.441406 1.90625 -16.046875 3.84375 -18.171875 C 5.789062 -20.304688 8.257812 -21.375 11.25 -21.375 C 14.007812 -21.375 16.28125 -20.507812 18.0625 -18.78125 L 18.0625 -20.765625 L 25.21875 -20.765625 L 25.21875 0 L 18.140625 0 L 18.140625 -2.34375 L 18.0625 -2.34375 C 16.28125 -0.375 14.007812 0.609375 11.25 0.609375 C 8.257812 0.609375 5.789062 -0.445312 3.84375 -2.5625 Z M 9.9375 -13.890625 C 9.007812 -12.972656 8.546875 -11.796875 8.546875 -10.359375 C 8.546875 -8.929688 8.988281 -7.765625 9.875 -6.859375 C 10.769531 -5.953125 11.945312 -5.5 13.40625 -5.5 C 14.800781 -5.5 15.953125 -5.957031 16.859375 -6.875 C 17.765625 -7.800781 18.21875 -8.960938 18.21875 -10.359375 C 18.21875 -11.796875 17.75 -12.972656 16.8125 -13.890625 C 15.882812 -14.804688 14.75 -15.265625 13.40625 -15.265625 C 12.019531 -15.265625 10.863281 -14.804688 9.9375 -13.890625 Z M 9.9375 -13.890625 "/></g></g></g><g fill="#000000" fill-opacity="1"><g transform="translate(265.500633, 197.677905)"><g><path d="M 7.046875 -8.65625 C 8.335938 -8.65625 9.4375 -8.203125 10.34375 -7.296875 C 11.25 -6.398438 11.703125 -5.304688 11.703125 -4.015625 C 11.703125 -2.742188 11.25 -1.65625 10.34375 -0.75 C 9.4375 0.15625 8.335938 0.609375 7.046875 0.609375 C 5.773438 0.609375 4.6875 0.15625 3.78125 -0.75 C 2.875 -1.65625 2.421875 -2.742188 2.421875 -4.015625 C 2.421875 -5.304688 2.875 -6.398438 3.78125 -7.296875 C 4.6875 -8.203125 5.773438 -8.65625 7.046875 -8.65625 Z M 7.046875 -8.65625 "/></g></g></g><g fill="#000000" fill-opacity="1"><g transform="translate(278.818542, 197.677905)"><g><path d="M 13.484375 -15.5 C 12.128906 -15.5 10.96875 -15 10 -14 C 9.03125 -13.007812 8.546875 -11.8125 8.546875 -10.40625 C 8.546875 -8.976562 9.03125 -7.765625 10 -6.765625 C 10.96875 -5.765625 12.128906 -5.265625 13.484375 -5.265625 C 14.128906 -5.265625 14.738281 -5.34375 15.3125 -5.5 C 15.894531 -5.664062 16.320312 -5.828125 16.59375 -5.984375 L 16.96875 -6.234375 L 19.390625 -1.25 C 19.203125 -1.113281 18.9375 -0.945312 18.59375 -0.75 C 18.257812 -0.550781 17.492188 -0.273438 16.296875 0.078125 C 15.097656 0.429688 13.804688 0.609375 12.421875 0.609375 C 9.378906 0.609375 6.703125 -0.460938 4.390625 -2.609375 C 2.085938 -4.753906 0.9375 -7.328125 0.9375 -10.328125 C 0.9375 -13.347656 2.085938 -15.941406 4.390625 -18.109375 C 6.703125 -20.285156 9.378906 -21.375 12.421875 -21.375 C 13.804688 -21.375 15.078125 -21.210938 16.234375 -20.890625 C 17.390625 -20.566406 18.210938 -20.242188 18.703125 -19.921875 L 19.390625 -19.4375 L 16.96875 -14.53125 C 16.070312 -15.175781 14.910156 -15.5 13.484375 -15.5 Z M 13.484375 -15.5 "/></g></g></g><g fill="#000000" fill-opacity="1"><g transform="translate(297.884698, 197.677905)"><g><path d="M 4.390625 -2.46875 C 2.085938 -4.519531 0.9375 -7.148438 0.9375 -10.359375 C 0.9375 -13.578125 2.132812 -16.21875 4.53125 -18.28125 C 6.9375 -20.34375 9.90625 -21.375 13.4375 -21.375 C 16.914062 -21.375 19.847656 -20.332031 22.234375 -18.25 C 24.628906 -16.175781 25.828125 -13.546875 25.828125 -10.359375 C 25.828125 -7.179688 24.660156 -4.554688 22.328125 -2.484375 C 19.992188 -0.421875 17.03125 0.609375 13.4375 0.609375 C 9.71875 0.609375 6.703125 -0.414062 4.390625 -2.46875 Z M 9.9375 -13.890625 C 9.007812 -12.972656 8.546875 -11.796875 8.546875 -10.359375 C 8.546875 -8.929688 8.988281 -7.765625 9.875 -6.859375 C 10.769531 -5.953125 11.945312 -5.5 13.40625 -5.5 C 14.800781 -5.5 15.953125 -5.957031 16.859375 -6.875 C 17.765625 -7.800781 18.21875 -8.960938 18.21875 -10.359375 C 18.21875 -11.796875 17.75 -12.972656 16.8125 -13.890625 C 15.882812 -14.804688 14.75 -15.265625 13.40625 -15.265625 C 12.019531 -15.265625 10.863281 -14.804688 9.9375 -13.890625 Z M 9.9375 -13.890625 "/></g></g></g><g fill="#000000" fill-opacity="1"><g transform="translate(323.832549, 197.677905)"><g><path d="M 2.421875 0 L 2.421875 -20.765625 L 9.59375 -20.765625 L 9.59375 -18.578125 L 9.671875 -18.578125 C 11.535156 -20.441406 13.519531 -21.375 15.625 -21.375 C 17.132812 -21.375 18.550781 -21.0625 19.875 -20.4375 C 21.195312 -19.820312 22.195312 -18.863281 22.875 -17.5625 C 24.976562 -20.101562 27.269531 -21.375 29.75 -21.375 C 31.96875 -21.375 33.875 -20.753906 35.46875 -19.515625 C 37.0625 -18.273438 37.859375 -16.332031 37.859375 -13.6875 L 37.859375 0 L 30.6875 0 L 30.6875 -11.734375 C 30.6875 -12.847656 30.378906 -13.773438 29.765625 -14.515625 C 29.160156 -15.253906 28.253906 -15.625 27.046875 -15.625 C 25.992188 -15.625 25.191406 -15.304688 24.640625 -14.671875 C 24.085938 -14.035156 23.78125 -13.273438 23.71875 -12.390625 L 23.71875 0 L 16.5625 0 L 16.5625 -11.734375 C 16.5625 -12.847656 16.253906 -13.773438 15.640625 -14.515625 C 15.035156 -15.253906 14.128906 -15.625 12.921875 -15.625 C 11.804688 -15.625 10.972656 -15.28125 10.421875 -14.59375 C 9.867188 -13.90625 9.59375 -13.085938 9.59375 -12.140625 L 9.59375 0 Z M 2.421875 0 "/></g></g></g></svg>